<svg width="672" height="352" viewBox="0 0 672 352" fill="none" xmlns="http://www.w3.org/2000/svg">
<path d="M53.8 313V271.8H16.4V252.2H53.8V210.8H73.2V252.2H110.8V271.8H73.2V313H53.8Z" fill="#FD3358"/>
<mask id="mask0_702_7" style="mask-type:alpha" maskUnits="userSpaceOnUse" x="136" y="4" width="510" height="335">
<path d="M136.97 333V316.08C136.97 301.98 139.477 289.133 144.49 277.54C149.503 265.947 156.397 255.293 165.17 245.58C173.943 235.867 183.657 226.623 194.31 217.85C204.963 209.077 215.93 200.617 227.21 192.47C240.057 182.757 252.12 173.2 263.4 163.8C274.993 154.4 284.393 144.373 291.6 133.72C298.807 122.753 302.41 110.69 302.41 97.53C302.41 91.2633 300.843 84.9967 297.71 78.73C294.577 72.4633 289.563 67.2933 282.67 63.22C276.09 58.8333 267.16 56.64 255.88 56.64C244.287 56.64 234.73 58.6767 227.21 62.75C219.69 66.51 213.893 71.9933 209.82 79.2C206.06 86.0933 204.18 94.71 204.18 105.05V121.97H141.2C140.887 120.403 140.573 118.21 140.26 115.39C139.947 112.57 139.79 109.123 139.79 105.05C139.79 82.1767 144.96 63.3767 155.3 48.65C165.953 33.9233 180.21 22.9567 198.07 15.75C216.243 8.54333 236.767 4.93999 259.64 4.93999C280.32 4.93999 297.553 7.91666 311.34 13.87C325.44 19.51 336.72 27.1867 345.18 36.9C353.64 46.3 359.593 56.64 363.04 67.92C366.8 78.8867 368.68 89.54 368.68 99.88C368.68 114.607 366.017 128.08 360.69 140.3C355.363 152.52 348.157 163.957 339.07 174.61C329.983 185.263 319.173 195.603 306.64 205.63C294.107 215.343 280.79 225.057 266.69 234.77C259.483 239.783 252.59 244.64 246.01 249.34C239.743 254.04 234.26 258.583 229.56 262.97C225.173 267.043 221.727 271.117 219.22 275.19H371.03V333H136.97ZM528.34 338.64C508.914 338.64 491.837 335.82 477.11 330.18C462.384 324.227 450.007 314.827 439.98 301.98C430.267 288.82 422.904 271.587 417.89 250.28C413.19 228.973 410.84 202.81 410.84 171.79C410.84 140.457 413.19 114.293 417.89 93.3C422.904 71.9933 430.267 54.76 439.98 41.6C450.007 28.44 462.384 19.04 477.11 13.4C491.837 7.75999 508.914 4.93999 528.34 4.93999C548.08 4.93999 565.157 7.75999 579.57 13.4C593.984 19.04 606.047 28.44 615.76 41.6C625.787 54.76 633.15 71.9933 637.85 93.3C642.864 114.293 645.37 140.457 645.37 171.79C645.37 202.81 642.864 228.973 637.85 250.28C633.15 271.587 625.787 288.82 615.76 301.98C606.047 314.827 593.984 324.227 579.57 330.18C565.157 335.82 548.08 338.64 528.34 338.64ZM528.34 287.88C542.127 287.88 552.624 284.277 559.83 277.07C567.037 269.55 572.05 258.27 574.87 243.23C577.69 228.19 579.1 209.39 579.1 186.83V157.69C579.1 134.817 577.69 115.86 574.87 100.82C572.05 85.4667 567.037 74.03 559.83 66.51C552.624 58.99 542.127 55.23 528.34 55.23C514.554 55.23 503.9 58.99 496.38 66.51C489.174 74.03 484.16 85.31 481.34 100.35C478.52 115.077 477.11 133.877 477.11 156.75V185.89C477.11 208.763 478.52 227.877 481.34 243.23C484.16 258.27 489.174 269.55 496.38 277.07C503.9 284.277 514.554 287.88 528.34 287.88Z" fill="#D9D9D9"/>
</mask>
<g mask="url(#mask0_702_7)">
<circle cx="220" cy="279" r="92" fill="#0DCA95"/>
<circle cx="188" cy="261" r="92" fill="#7362FE"/>
<circle cx="227" cy="208" r="92" fill="#FD3358"/>
<circle cx="213" cy="69" r="92" fill="#FCAF3D"/>
<circle cx="330" cy="69" r="92" fill="#7362FE"/>
<circle cx="342" cy="161" r="92" fill="#0DCA95"/>
<circle cx="539" cy="50" r="92" fill="#2CA2FB"/>
<circle cx="467" cy="69" r="92" fill="#FD3358"/>
<circle cx="630" cy="142" r="92" fill="#0DCA95"/>
<circle cx="513" cy="261" r="92" fill="#7362FE"/>
<circle cx="368" cy="285" r="92" fill="#FD3358"/>
<circle cx="586" cy="260" r="92" fill="#0DCA95"/>
<circle cx="460" cy="193" r="92" fill="#FCAF3D"/>
</g>
</svg>
