<svg width="34" height="34" viewBox="0 0 34 34" fill="none" xmlns="http://www.w3.org/2000/svg">
<path d="M29.1541 20.9762C28.3368 21.4937 27.5618 21.8962 26.8714 22.1837C26.3923 22.3994 25.8709 22.5 25.3636 22.5C24.8564 22.5 24.335 22.3994 23.8559 22.1837C22.63 21.6662 21.1364 20.8037 19.685 19.625H6.22818L8.31364 14.7375C8.53909 14.22 9.04636 13.875 9.59591 13.875H15.1477C14.7532 12.9837 14.4432 12.0206 14.2741 11H9.59591C7.91909 11 6.39727 12.0206 5.72091 13.5875L2.93091 20.1281C2.91682 20.1569 2.93091 20.1856 2.91682 20.2288C1.19773 21.12 0 22.9169 0 25.0156V30.4062C0 32.39 1.57818 34 3.52273 34C5.46727 34 7.04545 32.39 7.04545 30.4062V29.6875H23.9545V30.4062C23.9545 32.39 25.5327 34 27.4773 34C29.4218 34 31 32.39 31 30.4062V25.0156C31 23.3913 30.2814 21.9394 29.1541 20.9762ZM8.45455 26.8125H5.63636C4.86136 26.8125 4.22727 26.1656 4.22727 25.375C4.22727 24.5844 4.86136 23.9375 5.63636 23.9375H8.45455C9.22955 23.9375 9.86364 24.5844 9.86364 25.375C9.86364 26.1656 9.22955 26.8125 8.45455 26.8125ZM25.3636 26.8125H22.5455C21.7705 26.8125 21.1364 26.1656 21.1364 25.375C21.1364 24.5844 21.7705 23.9375 22.5455 23.9375H25.3636C26.1386 23.9375 26.7727 24.5844 26.7727 25.375C26.7727 26.1656 26.1386 26.8125 25.3636 26.8125Z" fill="#2CA2FB"/>
<path d="M33.2789 2.60915L25.8414 0.057854C25.6204 -0.0192847 25.3796 -0.0192847 25.1586 0.057854L17.7211 2.60915C17.289 2.75628 17 3.16483 17 3.62338V9.36307C17 16.3684 24.7548 19.7739 25.0849 19.9154C25.3513 20.0282 25.6487 20.0282 25.9151 19.9154C26.2452 19.7739 34 16.3684 34 9.36307V3.62338C34 3.16483 33.711 2.75628 33.2789 2.60915ZM30.1552 8.026L26.2593 13.0257C25.7635 13.6643 24.8342 13.7571 24.225 13.2286L21.7458 11.0858C21.1508 10.573 21.0814 9.6702 21.5928 9.07166C22.1014 8.47312 22.9967 8.40455 23.5889 8.91738L24.9461 10.0902L27.9282 6.26324C28.4113 5.64327 29.3009 5.53328 29.9172 6.02325C30.532 6.50751 30.6397 7.40603 30.1552 8.026Z" fill="#2CA2FB"/>
</svg>
