<svg width="33" height="35" viewBox="0 0 33 35" fill="none" xmlns="http://www.w3.org/2000/svg">
<path d="M16.9162 0.182856C16.8333 0.187193 16.7523 0.208463 16.6787 0.24684C16.6787 0.24684 9.86589 3.64507 1.37025 4.77783C1.08481 4.81729 0.872899 5.06225 0.875016 5.35038V17.3928C0.875016 24.7701 4.91395 29.1461 8.89617 31.5797C12.8784 34.0133 16.8523 34.5992 16.8523 34.5992C16.9088 34.6079 16.9662 34.6079 17.0227 34.5992C17.0227 34.5992 20.9966 34.0133 24.9788 31.5797C28.961 29.1461 33 24.7701 33 17.3928V5.35038C33.0024 5.06225 32.7902 4.81725 32.5047 4.77783C24.0091 3.64507 17.1963 0.24684 17.1963 0.24684C17.1099 0.202176 17.0135 0.180038 16.9162 0.182856H16.9162ZM16.9375 7.06907C22.6335 7.06907 27.2611 11.6966 27.2611 17.3927C27.2611 23.0887 22.6335 27.7219 16.9375 27.7219C11.2414 27.7219 6.61382 23.0887 6.61382 17.3927C6.61382 11.6966 11.2414 7.06907 16.9375 7.06907ZM14.6417 12.2309V15.1025H11.7756C11.4588 15.1014 11.201 15.3572 11.1997 15.674V19.117C11.2009 19.4339 11.4588 19.6897 11.7756 19.6885H14.6417V22.5601C14.6428 22.8774 14.9015 23.1334 15.2187 23.1315H18.6562C18.973 23.1327 19.2308 22.8769 19.2321 22.5601V19.6885H22.0993C22.4161 19.6896 22.6739 19.4339 22.6752 19.117V15.674C22.674 15.3572 22.4161 15.1013 22.0993 15.1025H19.2321V12.2309C19.2309 11.9141 18.973 11.6583 18.6562 11.6595H15.189C14.8654 11.6883 14.6415 11.9356 14.6417 12.2309H14.6417Z" fill="#959AA5"/>
</svg>
