<svg width="36" height="36" viewBox="0 0 36 36" fill="none" xmlns="http://www.w3.org/2000/svg">
<path d="M5.29395 15.1652V31.698H9.22126C8.05324 29.6954 7.41159 27.3929 7.41159 25.0018V19.0502H8.44395C9.61345 19.0502 10.5616 18.1021 10.5616 16.9326V15.9002H25.4381V16.9326C25.4381 18.1021 26.3862 19.0502 27.5557 19.0502H28.5881V25.0018C28.5881 27.3929 27.9464 29.6954 26.7783 31.698H30.7057C30.7057 31.698 30.7057 20.2457 30.7057 15.1392L18.0007 8.41577C15.9621 9.49867 10.1501 12.5858 5.29395 15.1652Z" fill="#959AA5"/>
<path d="M18 0.00830078C17.001 0.579148 0.998965 9.72244 0 10.2933V15.5794C0.623153 15.2484 17.2225 6.43155 17.999 6.01903L17.9995 6.01924L18 6.01953C23.3287 8.83945 30.506 12.6377 36 15.5451C36 14.9529 36 10.9172 36 10.2933C35.001 9.72244 18.999 0.579148 18 0.00830078Z" fill="#959AA5"/>
<path d="M23.3207 19.0766C23.3207 18.7063 23.3207 18.3881 23.3207 18.0178C20.0568 18.0178 15.946 18.0178 12.6795 18.0178V19.0766C12.6795 20.2298 11.7415 21.1678 10.5884 21.1678C10.2181 21.1678 9.89985 21.1678 9.52954 21.1678V25.0018C9.52954 28.8931 11.5053 32.2644 14.4309 34.2494C16.199 35.4491 17.8174 35.7919 18.0001 35.8584C18.1821 35.7923 19.8008 35.4494 21.5694 34.2494C24.4611 32.2873 26.4707 28.9319 26.4707 25.0018C26.4707 23.0971 26.4707 22.2815 26.4707 21.1679C26.1004 21.1679 25.7822 21.1679 25.4119 21.1679C24.2589 21.1678 23.3207 20.2298 23.3207 19.0766ZM16.8771 30.077L13.8823 27.0822L15.3796 25.5848L16.8771 27.0822C18.018 25.9413 19.4116 24.5477 20.6206 23.3387L22.118 24.8361C21.5895 25.3645 17.4054 29.5486 16.8771 30.077Z" fill="#959AA5"/>
</svg>
