<svg width="45" height="29" viewBox="0 0 45 29" fill="none" xmlns="http://www.w3.org/2000/svg">
<path d="M1.12521 25C1.27312 25.0005 1.41967 24.9727 1.55643 24.9182C1.69318 24.8638 1.81743 24.7837 1.92202 24.6826C2.02661 24.5816 2.10948 24.4615 2.16584 24.3294C2.22221 24.1972 2.25096 24.0556 2.25045 23.9127C2.25045 23.3763 2.47096 22.8619 2.86346 22.4826C3.25596 22.1034 3.78831 21.8903 4.3434 21.8903C4.89848 21.8903 5.43083 22.1034 5.82334 22.4826C6.21584 22.8619 6.43635 23.3763 6.43635 23.9127C6.43635 24.2011 6.5549 24.4776 6.76592 24.6815C6.97695 24.8854 7.26316 25 7.56159 25C7.86002 25 8.14623 24.8854 8.35725 24.6815C8.56828 24.4776 8.68683 24.2011 8.68683 23.9127C8.68651 22.9888 8.37106 22.0908 7.7893 21.3576C7.20753 20.6245 6.3919 20.0971 5.46864 19.857V11.9196L11.5112 14.4748C12.9472 15.0737 21.3995 18.6497 23.0224 19.3351C23.1651 19.3996 23.3207 19.433 23.4782 19.433C23.6357 19.433 23.7912 19.3996 23.9339 19.3351C29.5319 16.9632 38.7433 13.0858 44.3345 10.7127C44.5328 10.6264 44.7011 10.4867 44.8191 10.3102C44.9372 10.1337 45 9.92801 45 9.71786C45 9.50771 44.9372 9.30204 44.8191 9.12555C44.7011 8.94907 44.5328 8.80928 44.3345 8.723L23.934 0.0897467C23.7898 0.0305241 23.6348 0 23.4782 0C23.3216 0 23.1666 0.0305241 23.0225 0.0897467L2.62189 8.723C2.42351 8.80921 2.25512 8.94898 2.13699 9.12548C2.01886 9.30197 1.95601 9.50769 1.95601 9.71789C1.95601 9.92808 2.01886 10.1338 2.13699 10.3103C2.25512 10.4868 2.42351 10.6266 2.62189 10.7128L3.21819 10.9629V19.8571C2.29493 20.0971 1.4793 20.6245 0.897533 21.3577C0.31577 22.0909 0.000317715 22.9889 0 23.9127C0.000905265 24.2008 0.119744 24.4769 0.330566 24.6806C0.541388 24.8843 0.827064 24.9991 1.12521 25Z" fill="#969BA5"/>
<path d="M24.0056 21.5904C23.5225 21.5927 23.0448 21.4961 22.6065 21.3074C21.7952 20.9782 12.4999 17.1943 12 17V25.9607C11.9997 26.1692 12.0661 26.3731 12.1906 26.5466C12.3151 26.7201 12.4923 26.8554 12.6996 26.9354C19.9417 29.6882 28.0583 29.6882 35.3004 26.9354C35.5077 26.8554 35.6849 26.7201 35.8094 26.5466C35.9339 26.3731 36.0003 26.1692 36 25.9607V17C35.5366 17.1796 26.1497 20.998 25.3597 21.3179C24.9355 21.5003 24.4731 21.5934 24.0056 21.5904Z" fill="#969BA5"/>
</svg>
