<svg width="1920" height="1035" viewBox="0 0 1920 1035" fill="none" xmlns="http://www.w3.org/2000/svg">
<path fill-rule="evenodd" clip-rule="evenodd" d="M1921.48 0H-37.917V571.034H-241V892.045L-155.627 895.722L248.99 892.045C263.478 892.045 300.628 899.4 333.328 928.822C374.204 965.599 415.597 949.837 439.398 920.941C463.199 892.045 486.119 911.136 487.517 920.941C487.718 922.35 487.492 925.038 487.205 928.458C485.833 944.778 483.058 977.781 518.562 968.226C529.383 965.313 540.665 959.465 552.696 953.228C588.411 934.714 630.732 912.775 687.239 954.04C696.341 960.687 705.397 967.86 714.53 975.093C781.198 1027.89 851.926 1083.91 973.885 961.921C1035.32 900.469 1083.53 959.132 1107.53 988.33C1113.54 995.646 1118.03 1001.11 1120.83 1002.38C1127.04 1010.78 1148.25 1026.54 1183.44 1022.34C1215.4 1018.52 1202.94 988.776 1194.2 967.922C1193.32 965.819 1192.47 963.807 1191.72 961.921C1185.33 943.883 1186.34 907.911 1241.39 908.332C1270.36 908.332 1293.82 938.804 1301.93 954.04C1312.96 967.875 1338.97 989.766 1354.7 966.649C1355.97 962.227 1355.14 957.158 1354.31 952.077C1352.77 942.673 1351.22 933.229 1362.98 927.771C1381.09 919.365 1400.75 928.296 1448.35 966.649C1487.73 998.379 1547.66 944.885 1572.74 922.488C1577.98 917.813 1581.7 914.493 1583.4 913.585C1608.75 893.621 1697.44 857.79 1849.35 874.182C2001.26 890.574 2044.41 678.914 2047 571.034H1921.48V0Z" fill="#000E29"/>
</svg>
