<svg width="4019" height="1406" viewBox="0 0 4019 1406" fill="none" xmlns="http://www.w3.org/2000/svg">
<path fill-rule="evenodd" clip-rule="evenodd" d="M241.216 1336.45L936.269 1316.04C940.594 1315.93 947.497 1315.12 956.006 1314.13C996.464 1309.42 1073.24 1300.47 1081.9 1341.95C1101.6 1436.22 1198.13 1373.56 1247.72 1341.38C1253.96 1337.32 1259.46 1333.75 1263.97 1331.04C1304.28 1306.79 1344.04 1321.15 1346.64 1328.96C1347.01 1330.09 1346.68 1332.26 1346.25 1335.02C1344.23 1348.2 1340.13 1374.84 1400.93 1365.63C1419.46 1362.82 1438.72 1357.63 1459.27 1352.1L1459.27 1352.1C1520.25 1335.68 1592.52 1316.22 1690.43 1346.95C1706.2 1351.9 1721.9 1357.27 1737.74 1362.69C1853.34 1402.25 1975.98 1444.21 2183.04 1340.91C2287.35 1288.87 2371.36 1333.93 2413.17 1356.37C2423.65 1361.99 2431.48 1366.18 2436.31 1367.08C2447.15 1373.57 2483.91 1385.32 2544.27 1380.42C2599.1 1375.97 2577.09 1352.61 2561.66 1336.22L2561.64 1336.21L2561.64 1336.2C2560.09 1334.56 2558.6 1332.98 2557.27 1331.51C2545.95 1317.29 2546.94 1288.33 2641.53 1286.29C2691.31 1285.04 2732.22 1308.52 2746.45 1320.42C2765.7 1331.06 2810.82 1347.53 2837.38 1328.27C2839.47 1324.66 2837.94 1320.63 2836.41 1316.58C2833.57 1309.09 2830.72 1301.56 2850.81 1296.67C2881.76 1289.13 2932.75 1284.89 3015.3 1313.66C3084.11 1337.64 3175.17 1298.54 3213.29 1282.16C3220.91 1278.89 3226.41 1276.53 3229.2 1275.76C3272.36 1258.62 3423.99 1225.99 3685.31 1232.61C3946.62 1239.23 4016.48 1067.26 4018.75 980.444L3903 983.352V373H3932L3932 114.927L3785.28 111.971L3089.94 114.927C3085.61 114.927 3078.69 115.558 3070.16 116.335L3070.16 116.335C3029.59 120.031 2952.62 127.045 2945 85.3608C2927.68 -9.37316 2829.6 50.8429 2779.22 81.7728L2779.21 81.7768L2779.19 81.7895C2772.86 85.6773 2767.28 89.1019 2762.71 91.6965C2721.81 114.927 2682.42 99.5791 2680.02 91.6965C2679.67 90.5637 2680.06 88.4033 2680.56 85.6538L2680.56 85.6531C2682.91 72.5331 2687.68 46.0005 2626.67 53.6826C2608.07 56.024 2588.68 60.7253 2568.01 65.7391L2568.01 65.7395C2506.63 80.6236 2433.9 98.2611 2336.79 65.0867C2321.15 59.7432 2305.59 53.9766 2289.89 48.1614L2289.89 48.1614C2175.32 5.71276 2053.77 -39.3213 1844.18 58.751C1738.6 108.155 1655.75 60.9933 1614.51 37.5198L1614.51 37.5188L1614.51 37.5184C1604.18 31.6374 1596.46 27.2435 1591.65 26.228C1580.98 19.47 1544.52 6.7987 1484.06 10.1776C1429.13 13.2473 1450.55 37.1609 1465.57 53.9267C1467.08 55.6171 1468.53 57.2347 1469.83 58.751C1480.8 73.2526 1479.08 102.171 1384.47 101.833C1334.67 101.833 1294.37 77.3355 1280.43 65.0866C1261.46 53.9641 1216.77 36.365 1189.74 54.9496C1187.55 58.5051 1188.98 62.5803 1190.41 66.6648C1193.06 74.2253 1195.72 81.8178 1175.51 86.2055C1144.39 92.9635 1093.31 95.9202 1011.5 65.0867C943.312 39.3857 851.306 76.1923 812.781 91.6043C805.088 94.6821 799.527 96.9066 796.715 97.6097C753.145 113.66 600.737 142.466 339.671 129.288C78.6047 116.11 4.44629 286.271 0 373H70V1122H89.0657L94.4714 1337.18L241.216 1336.45Z" fill="#000E29"/>
</svg>
