<svg width="4532" height="375" viewBox="0 0 4532 375" fill="none" xmlns="http://www.w3.org/2000/svg">
<path fill-rule="evenodd" clip-rule="evenodd" d="M3227 0H3654H4532V171H4170V260.073L4014.4 263.029L3276.97 260.073C3272.41 260.073 3265.15 259.45 3256.19 258.683L3256.01 258.668L3255.99 258.665C3212.97 254.969 3131.34 247.955 3123.26 289.64C3104.89 384.374 3000.87 324.157 2947.44 293.228L2944 291.235C2942 290.08 2940.09 288.977 2938.26 287.935C2935.23 286.203 2932.44 284.644 2929.94 283.304C2886.56 260.073 2844.79 275.421 2842.24 283.304C2841.87 284.437 2842.28 286.598 2842.81 289.348C2845.31 302.467 2850.37 329 2785.66 321.317C2765.97 318.98 2745.45 314.29 2723.56 309.287L2723.48 309.27L2723.45 309.261C2658.36 294.377 2581.22 276.739 2478.24 309.913C2461.65 315.257 2445.14 321.023 2428.5 326.839C2306.99 369.288 2178.08 414.321 1955.81 316.249C1843.84 266.846 1755.97 314.007 1712.24 337.48C1701.28 343.362 1693.09 347.757 1687.99 348.772C1676.68 355.53 1638.01 368.201 1573.89 364.822C1515.64 361.753 1538.35 337.84 1554.28 321.068C1555.89 319.38 1557.42 317.764 1558.8 316.249C1570.43 301.748 1568.61 272.829 1468.27 273.167C1415.46 273.167 1372.71 297.664 1357.94 309.913C1337.82 321.036 1290.42 338.635 1261.75 320.051C1259.44 316.495 1260.95 312.42 1262.46 308.335C1265.27 300.774 1268.09 293.183 1246.66 288.795C1213.66 282.036 1159.48 279.08 1072.73 309.913C1000.41 335.614 902.836 298.808 861.979 283.396L861.943 283.384C853.802 280.312 847.918 278.093 844.939 277.391C798.732 261.34 637.099 232.534 360.231 245.712C230.572 251.884 144.384 217.847 88.9041 171H0V2V0H1054H1305H1307V2H3227V0Z" fill="#000E29"/>
</svg>
