<svg width="4170" height="719" viewBox="0 0 4170 719" fill="none" xmlns="http://www.w3.org/2000/svg">
<path fill-rule="evenodd" clip-rule="evenodd" d="M2733 718.977L1193 718.976V719H38V373H0V114.927L155.597 111.971L893.032 114.928C897.621 114.928 904.96 115.558 914.008 116.335C957.028 120.032 1038.66 127.045 1046.74 85.3607C1065.11 -9.37368 1169.13 50.8431 1222.56 81.7728L1222.56 81.7772C1229.29 85.6708 1235.21 89.0995 1240.06 91.6966C1283.44 114.927 1325.21 99.579 1327.76 91.6966C1328.13 90.5638 1327.72 88.4032 1327.19 85.6532C1324.69 72.5331 1319.63 46.0003 1384.34 53.6825C1404.06 56.0243 1424.63 60.7254 1446.55 65.7396C1511.64 80.6239 1588.78 98.2611 1691.76 65.0868C1708.35 59.7455 1724.85 53.9813 1741.48 48.1688L1741.5 48.1615C1863.01 5.71274 1991.92 -39.3214 2214.19 58.7513C2326.16 108.155 2414.03 60.9935 2457.76 37.5199C2468.72 31.638 2476.91 27.2435 2482.01 26.2279C2493.32 19.4701 2531.99 6.79868 2596.11 10.1776C2654.36 13.2474 2631.65 37.161 2615.72 53.9271C2614.11 55.617 2612.58 57.2347 2611.2 58.7513C2599.57 73.2528 2601.39 102.172 2701.73 101.834C2754.54 101.834 2797.29 77.3358 2812.06 65.0868C2832.18 53.9642 2879.58 36.3651 2908.25 54.95C2910.56 58.5052 2909.05 62.5804 2907.54 66.6649C2904.73 74.2254 2901.91 81.8182 2923.34 86.2059C2956.34 92.9637 3010.52 95.9208 3097.27 65.0873C3169.59 39.3861 3267.16 76.1927 3308.02 91.6043C3316.18 94.6825 3322.08 96.9071 3325.06 97.6102C3371.27 113.66 3532.9 142.467 3809.77 129.288C4086.64 116.11 4165.29 286.272 4170 373H4090V719H2733V718.977Z" fill="#000E29"/>
</svg>
