<svg width="4462" height="720" viewBox="0 0 4462 720" fill="none" xmlns="http://www.w3.org/2000/svg">
<path fill-rule="evenodd" clip-rule="evenodd" d="M1240.25 719.497L3215 719.497V718.498H4459V373.521H4461.83C4461.43 366.34 4460.51 358.588 4459 350.415V262.498H4422.92C4374.91 189.678 4276.2 121.272 4092.1 129.809C3807.93 142.987 3642.04 114.181 3594.61 98.1306C3591.55 97.4274 3585.5 95.2028 3577.12 92.1249C3535.19 76.713 3435.04 39.9066 3360.82 65.6076C3271.77 96.4411 3216.17 93.4844 3182.29 86.7264C3160.3 82.3387 3163.19 74.7462 3166.07 67.1855C3167.63 63.101 3169.18 59.0259 3166.81 55.4704C3137.38 36.8857 3088.73 54.4848 3068.08 65.6075C3052.92 77.8564 3009.04 102.354 2954.84 102.354C2851.86 102.692 2849.98 73.7734 2861.92 59.2718C2863.33 57.7614 2864.9 56.1505 2866.54 54.4674L2866.56 54.4475C2882.91 37.6815 2906.22 13.7679 2846.44 10.6983C2780.62 7.31928 2740.94 19.9905 2729.32 26.7486C2724.09 27.7642 2715.68 32.1583 2704.44 38.0394L2704.44 38.0405C2659.55 61.5141 2569.37 108.675 2454.44 59.2717C2226.3 -38.8008 2094 6.23322 1969.29 48.682C1952.2 54.4971 1935.26 60.2637 1918.23 65.6074C1812.53 98.7817 1733.36 81.1442 1666.55 66.2601L1666.55 66.2593C1644.05 61.2457 1622.95 56.5445 1602.7 54.2031C1536.29 46.5209 1541.48 73.0538 1544.05 86.1738C1544.58 88.9237 1545.01 91.0843 1544.63 92.2171C1542.01 100.1 1499.14 115.448 1454.62 92.2171C1449.64 89.6203 1443.56 86.192 1436.66 82.2995L1436.65 82.2933C1381.81 51.3632 1275.05 -8.85284 1256.2 85.8814C1247.91 127.566 1164.12 120.552 1119.96 116.856H1119.96L1119.96 116.855C1110.68 116.078 1103.14 115.448 1098.44 115.448L341.55 112.491L181.849 115.448L181.849 185.498H0V718.498H1240.25V719.497Z" fill="#000E29"/>
</svg>
