<svg width="4400" height="393" viewBox="0 0 4400 393" fill="none" xmlns="http://www.w3.org/2000/svg">
<path d="M942.86 115.928L165.104 112.971L1.00002 115.928L1 374L4399 374.001C4394.03 287.273 4311.08 117.111 4019.07 130.289C3727.07 143.467 3556.6 114.661 3507.86 98.6104C3488.97 94.3866 3359.12 35.2538 3267.62 66.0874C3176.12 96.9209 3118.99 93.9642 3084.18 87.2061C3049.37 80.4481 3075.22 66.0872 3068.26 55.9501C3038.03 37.3655 2988.03 54.9646 2966.82 66.0872C2951.23 78.3362 2906.15 102.834 2850.45 102.834C2744.63 103.172 2742.7 74.2531 2754.97 59.7515C2770.84 43.1949 2806.69 14.5571 2739.06 11.1781C2671.43 7.79903 2630.65 20.4704 2618.72 27.2284C2591.86 32.2969 2483.94 121.534 2336.26 59.7515C2069.71 -51.7563 1930.47 21.7374 1785.26 66.0871C1640.06 110.437 1543.58 63.9752 1461.03 54.6829C1378.48 45.3905 1403.59 86.1587 1401.36 92.6969C1398.67 100.579 1354.61 115.928 1308.86 92.6969C1263.11 69.4661 1126.79 -20.3028 1104.98 86.3612C1094.66 136.812 970.708 115.928 942.86 115.928Z" stroke="#FCAF3D"/>
<path d="M1002.03 133.95L264.597 130.994L109 133.95L109 392.023L4279 392.024C4274.29 305.295 4195.64 135.133 3918.77 148.311C3641.9 161.49 3480.27 132.683 3434.06 116.633C3416.14 112.409 3293.03 53.2765 3206.27 84.11C3119.52 114.944 3065.34 111.987 3032.34 105.229C2999.33 98.4707 3023.85 84.1099 3017.25 73.9728C2988.58 55.3882 2941.18 72.9873 2921.06 84.1099C2906.29 96.3589 2863.54 120.857 2810.73 120.857C2710.39 121.195 2708.57 92.2758 2720.2 77.7742C2735.24 61.2176 2769.24 32.5798 2705.11 29.2008C2640.99 25.8217 2602.32 38.4931 2591.01 45.2511C2565.55 50.3196 2463.22 139.557 2323.19 77.7742C2070.47 -33.7337 1938.44 39.7601 1800.76 84.1098C1663.08 128.459 1571.61 81.9979 1493.34 72.7056C1415.07 63.4132 1438.88 104.181 1436.76 110.72C1434.21 118.602 1392.44 133.95 1349.06 110.72C1305.68 87.4888 1176.42 -2.28009 1155.74 104.384C1145.96 154.835 1028.44 133.95 1002.03 133.95Z" fill="#000E29"/>
</svg>
