<svg width="892" height="879" viewBox="0 0 892 879" fill="none" xmlns="http://www.w3.org/2000/svg">
<path d="M168.693 552.3C125.485 401.648 160.226 320.948 221.076 247.184C271.635 185.895 360.198 144.974 463.765 128.252C580.999 109.323 645.239 146.637 674.944 211.735C707.133 282.276 708.071 315.464 593.954 432.602C511.53 517.209 683.419 528.666 601.224 700.981C588.19 728.306 553.113 743.495 529.154 745.633C506.962 747.612 225.42 750.09 168.693 552.3Z" fill="#FCAF3D"/>
<path d="M168.693 552.3C125.485 401.648 160.226 320.948 221.076 247.184C271.635 185.895 360.198 144.974 463.765 128.252C580.999 109.323 645.239 146.637 674.944 211.735C707.133 282.276 708.071 315.464 593.954 432.602C511.53 517.209 683.419 528.666 601.224 700.981C588.19 728.306 553.113 743.495 529.154 745.633C506.962 747.612 225.42 750.09 168.693 552.3Z" stroke="#2CA2FB"/>
<path d="M168.693 552.3C125.485 401.648 160.226 320.948 221.076 247.184C271.635 185.895 360.198 144.974 463.765 128.252C580.999 109.323 645.239 146.637 674.944 211.735C707.133 282.276 708.071 315.464 593.954 432.602C511.53 517.209 683.419 528.666 601.224 700.981C588.19 728.306 553.113 743.495 529.154 745.633C506.962 747.612 225.42 750.09 168.693 552.3Z" stroke="black" stroke-opacity="0.2"/>
<path d="M148.693 551.3C105.485 400.648 140.226 319.948 201.076 246.184C251.635 184.895 340.198 143.974 443.765 127.252C560.999 108.323 625.239 145.637 654.944 210.735C687.133 281.276 688.071 314.464 573.954 431.602C491.53 516.209 663.419 527.666 581.224 699.981C568.19 727.306 533.113 742.495 509.154 744.633C486.962 746.612 205.42 749.09 148.693 551.3Z" stroke="#2CA2FB"/>
<path d="M148.693 551.3C105.485 400.648 140.226 319.948 201.076 246.184C251.635 184.895 340.198 143.974 443.765 127.252C560.999 108.323 625.239 145.637 654.944 210.735C687.133 281.276 688.071 314.464 573.954 431.602C491.53 516.209 663.419 527.666 581.224 699.981C568.19 727.306 533.113 742.495 509.154 744.633C486.962 746.612 205.42 749.09 148.693 551.3Z" stroke="black" stroke-opacity="0.2"/>
<path d="M162.294 541.527C119.087 390.875 153.828 310.175 214.678 236.411C265.237 175.122 353.8 134.201 457.367 117.479C574.6 98.5498 638.84 135.864 668.546 200.962C700.735 271.503 701.672 304.691 587.556 421.829C505.131 506.435 677.021 517.893 594.825 690.208C581.791 717.532 546.715 732.722 522.756 734.86C500.563 736.839 219.022 739.317 162.294 541.527Z" fill="#000E29"/>
<path d="M162.294 541.527C119.087 390.875 153.828 310.175 214.678 236.411C265.237 175.122 353.8 134.201 457.367 117.479C574.6 98.5498 638.84 135.864 668.546 200.962C700.735 271.503 701.672 304.691 587.556 421.829C505.131 506.435 677.021 517.893 594.825 690.208C581.791 717.532 546.715 732.722 522.756 734.86C500.563 736.839 219.022 739.317 162.294 541.527Z" stroke="#2CA2FB"/>
<path d="M162.294 541.527C119.087 390.875 153.828 310.175 214.678 236.411C265.237 175.122 353.8 134.201 457.367 117.479C574.6 98.5498 638.84 135.864 668.546 200.962C700.735 271.503 701.672 304.691 587.556 421.829C505.131 506.435 677.021 517.893 594.825 690.208C581.791 717.532 546.715 732.722 522.756 734.86C500.563 736.839 219.022 739.317 162.294 541.527Z" stroke="black" stroke-opacity="0.2"/>
<circle cx="153.789" cy="214.208" r="6.15941" transform="rotate(-10.586 153.789 214.208)" fill="#FCAF3D"/>
<circle cx="209.958" cy="676.798" r="7.18597" transform="rotate(-10.586 209.958 676.798)" fill="#006ACC"/>
<circle cx="620.157" cy="472.157" r="6.13443" transform="rotate(-10.586 620.157 472.157)" fill="#2CA2FB"/>
</svg>
