<svg width="4589" height="1112" viewBox="0 0 4589 1112" fill="none" xmlns="http://www.w3.org/2000/svg">
<path fill-rule="evenodd" clip-rule="evenodd" d="M189.79 374.501H189.29V374.001V115.928V115.436L189.781 115.428L353.886 112.471H353.896L1131.65 115.428C1136.51 115.428 1144.29 116.061 1153.84 116.84L1153.85 116.84C1158.03 117.181 1162.55 117.549 1167.32 117.904C1183.01 119.073 1201.42 120.106 1219.27 119.564C1237.13 119.022 1254.39 116.905 1267.82 111.798C1281.25 106.692 1290.75 98.638 1293.28 86.2611C1298.75 59.4679 1311.46 44.9122 1328.21 38.6173C1344.93 32.3402 1365.57 34.3209 1386.87 40.3372C1398.94 43.7476 1411.26 48.4654 1423.23 53.7391C1461.14 57.4879 1506.81 83.6434 1536.75 100.794L1536.88 100.868C1538.46 101.77 1539.99 102.649 1541.48 103.496L1543 104.367C1549.08 104.674 1554.79 104.453 1559.99 103.868C1568.49 102.913 1575.63 100.992 1580.8 98.828C1583.39 97.7457 1585.47 96.6078 1586.98 95.5086C1588.51 94.3966 1589.39 93.3707 1589.68 92.5355C1589.78 92.2203 1589.82 91.7562 1589.78 91.1219C1589.74 90.4959 1589.63 89.7501 1589.48 88.8944C1589.43 88.6356 1589.38 88.3658 1589.32 88.086C1589.25 87.7345 1589.18 87.3673 1589.1 86.9867L1589.07 86.8377L1589.06 86.773L1589.06 86.7628C1588.81 85.5374 1588.54 84.182 1588.31 82.7728C1587.56 78.1532 1587.19 72.6139 1589.41 67.5526C1591.64 62.4608 1596.45 57.9495 1605.85 55.3016C1615.23 52.659 1629.21 51.8597 1649.88 54.1861C1670.74 56.5348 1692.47 61.245 1715.62 66.2645C1784.26 81.1439 1865.43 98.7413 1973.91 65.609C1991.38 60.274 2008.76 54.5142 2026.3 48.7039L2026.32 48.6974C2081.63 30.377 2138.45 11.5565 2203.99 3.97592C2290.36 -6.01334 2391.9 3.50643 2525.24 59.2901C2598.95 90.1261 2662.73 83.2755 2711.44 68.0819C2735.8 60.4837 2756.39 50.7984 2772.59 42.6895C2774.17 41.8978 2775.71 41.1207 2777.21 40.3617C2778.38 39.7669 2779.53 39.1832 2780.65 38.6124L2781.58 38.1407L2781.7 38.0777C2786.05 35.8634 2789.99 33.8573 2793.5 32.1649C2799.26 29.3853 2803.91 27.4161 2807.33 26.7528C2819.47 19.921 2860.32 7.3038 2927.87 10.6788C2944.79 11.5243 2955.34 13.9503 2961.35 17.4322C2964.36 19.1798 2966.27 21.2103 2967.25 23.4679C2968.22 25.7276 2968.24 28.1556 2967.6 30.6483C2966.74 33.964 2964.7 37.442 2962.08 40.8997C2966.91 50.0748 2954.68 62.8167 2944.95 72.9486C2943.33 74.6388 2941.77 76.2564 2940.38 77.7725L2940.27 77.9088C2941.5 80.8058 2943.8 83.7081 2947.51 86.4554C2953.52 90.8934 2963.21 94.9102 2978.05 97.7933C2992.88 100.675 3012.8 102.419 3039.24 102.334C3094.8 102.334 3139.79 77.8873 3155.3 65.6942L3155.33 65.6656L3155.37 65.6444C3166.02 60.0638 3183.87 52.8641 3202.86 49.3866C3221.83 45.912 3242.04 46.1349 3257.31 55.5243L3257.4 55.5797L3257.46 55.6671C3259.34 58.3963 3258.97 61.389 3258.06 64.3097C3257.84 65.0116 3257.58 65.7191 3257.32 66.4246L3257.22 66.6798L3257.11 66.9552C3257 67.2562 3256.88 67.5565 3256.76 67.8558C3256.65 68.1361 3256.54 68.4154 3256.43 68.693C3256.05 69.6866 3255.69 70.6644 3255.4 71.6261C3255.27 72.0716 3255.15 72.5135 3255.05 72.9517C3254.75 74.3336 3254.67 75.6539 3254.96 76.9085C3255.24 78.1556 3255.89 79.3702 3257.12 80.5348C3259.59 82.8861 3264.38 85.0294 3273.06 86.7152C3307.78 93.4557 3364.83 96.4215 3456.25 65.6136C3502.14 50.1493 3557.6 57.2547 3603.88 68.7169C3627.03 74.4508 3647.91 81.2801 3664.17 86.9386C3669.46 88.7752 3674.25 90.4903 3678.48 92.0025L3678.66 92.0645L3678.84 92.1312L3678.85 92.1349L3679.26 92.2796C3680.24 92.6314 3681.19 92.9718 3682.11 93.2996L3682.6 93.4725C3683.36 93.7457 3684.11 94.0099 3684.82 94.2642C3690.37 96.2288 3694.44 97.6024 3696.76 98.1224L3696.79 98.1278L3696.81 98.1353C3745.46 114.158 3915.86 142.966 4207.84 129.789C4353.95 123.195 4447.82 162.469 4505.8 214.307C4563.76 266.136 4585.8 330.485 4588.29 373.972L4588.32 374.501H4587.79H4514.15C4515.09 380.634 4515.7 386.497 4516 392.022H4300V788H4214.18L4210.35 1027.91L4053.04 1028.41L3307.79 1013.8C3303.15 1013.73 3295.75 1012.99 3286.61 1012.07C3243.2 1007.69 3160.8 999.388 3151.97 1040.94C3131.89 1135.37 3027.73 1073.52 2974.23 1041.75C2967.49 1037.75 2961.55 1034.23 2956.69 1031.55C2913.22 1007.64 2870.76 1022.32 2868.06 1030.17C2867.67 1031.29 2868.05 1033.46 2868.54 1036.22C2870.85 1049.38 2875.54 1075.98 2810.27 1067.28C2790.37 1064.63 2769.66 1059.6 2747.58 1054.24C2682.04 1038.33 2604.36 1019.48 2499.75 1051.02C2482.91 1056.1 2466.15 1061.6 2449.24 1067.15L2449.23 1067.15L2449.22 1067.15L2449.21 1067.16L2449.21 1067.16C2325.73 1107.68 2194.73 1150.68 1971.65 1049.1C1859.27 997.939 1769.72 1043.71 1725.14 1066.49C1713.97 1072.19 1705.63 1076.46 1700.46 1077.39C1688.91 1083.97 1649.63 1096.03 1584.88 1091.64C1526.05 1087.65 1549.4 1064.1 1565.76 1047.59L1565.77 1047.58L1565.79 1047.55L1565.82 1047.53C1566.35 1046.99 1566.88 1046.45 1567.4 1045.93C1568.46 1044.86 1569.47 1043.82 1570.4 1042.83C1582.39 1028.52 1581.01 999.573 1479.6 998.326C1426.23 997.492 1382.63 1021.31 1367.5 1033.33C1346.99 1044.13 1298.8 1060.98 1270.13 1041.94C1267.84 1038.35 1269.44 1034.3 1271.04 1030.24C1273.99 1022.72 1276.96 1015.18 1255.38 1010.45C1222.13 1003.17 1167.42 999.361 1079.25 1028.82C1005.75 1053.38 907.724 1015.03 866.677 998.977C858.48 995.771 852.556 993.454 849.553 992.704C803.109 975.925 640.212 944.569 360.181 953.373C80.1499 962.176 3.38086 790.793 0 704.001L238 707.72V374.501H189.79ZM301.007 282H238V373.501H190.29V116.419L353.893 113.471L1131.65 116.428C1136.47 116.428 1144.17 117.056 1153.7 117.832L1153.77 117.837C1157.94 118.177 1162.46 118.545 1167.24 118.901C1182.94 120.071 1201.39 121.107 1219.3 120.563C1237.2 120.02 1254.59 117.899 1268.18 112.733C1281.77 107.565 1291.63 99.3101 1294.26 86.4613C1299.68 59.9224 1312.2 45.7003 1328.57 39.5536C1344.98 33.389 1365.37 35.3031 1386.6 41.2996C1397.73 44.4439 1409.06 48.7017 1420.14 53.483C1391.06 51.5409 1367.03 63.6121 1359.04 104.382C1350.88 146.067 1268.36 139.053 1224.88 135.357C1215.73 134.579 1208.31 133.949 1203.68 133.949L458.283 130.992L301.007 133.949V282ZM4513.99 373.501H4587.26C4584.63 330.267 4562.65 266.483 4505.13 215.053C4447.39 163.422 4353.79 124.204 4207.89 130.788C3915.9 143.965 3745.37 115.172 3696.52 99.0929C3694.12 98.5528 3690 97.1576 3684.49 95.2069C3682.65 94.5553 3680.65 93.8407 3678.51 93.0733C3674.19 91.5294 3669.28 89.7718 3663.85 87.8829C3647.59 82.2296 3626.75 75.411 3603.64 69.6876C3557.4 58.2359 3502.18 51.1917 3456.57 66.5611C3365 97.4205 3307.77 94.4725 3272.87 87.6969C3264.15 86.0037 3259.12 83.8177 3256.43 81.2591C3255.07 79.9683 3254.31 78.5826 3253.98 77.1305C3253.65 75.6859 3253.76 74.2078 3254.08 72.7386C3254.4 71.2721 3254.94 69.7889 3255.5 68.3321C3255.61 68.0455 3255.72 67.7603 3255.84 67.4764L3255.84 67.4537C3256.07 66.868 3256.3 66.2877 3256.52 65.711C3256.59 65.4986 3256.67 65.2867 3256.75 65.0753C3256.87 64.7191 3256.99 64.3643 3257.1 64.0106C3257.98 61.2113 3258.24 58.6368 3256.7 56.3199C3241.75 47.1798 3221.89 46.9181 3203.04 50.3702C3184.19 53.8224 3166.46 60.9696 3155.88 66.5086C3140.19 78.8228 3095.03 103.334 3039.24 103.334C3012.77 103.419 2992.77 101.673 2977.86 98.775C2962.95 95.8778 2953.09 91.8219 2946.92 87.2596C2943.29 84.5782 2940.93 81.7162 2939.58 78.8133C2928.77 93.6112 2932.84 121.185 3031.89 120.855C3085.27 120.855 3128.48 96.3573 3143.41 84.1082C3163.75 72.9857 3211.66 55.3866 3240.64 73.9713C3242.98 77.5267 3241.45 81.6019 3239.91 85.6864C3237.08 93.2469 3234.23 100.839 3255.89 105.227C3289.25 111.985 3344.01 114.942 3431.7 84.1085C3504.8 58.4076 3603.42 95.214 3644.72 110.626L3644.73 110.63C3652.97 113.706 3658.93 115.929 3661.94 116.631C3708.65 132.682 3872.03 161.488 4151.88 148.31C4412.94 136.017 4499.65 283.265 4513.99 373.501ZM2961.52 39.9737C2963.98 36.6893 2965.84 33.4466 2966.63 30.3983C2967.23 28.065 2967.2 25.8734 2966.33 23.8648C2965.46 21.8546 2963.73 19.9688 2960.85 18.2974C2955.05 14.9422 2944.72 12.5216 2927.82 11.6773C2860.24 8.30111 2819.57 20.9696 2807.75 27.6634L2807.68 27.7044L2807.6 27.7198C2804.32 28.3392 2799.75 30.2581 2793.93 33.0655C2790.45 34.7486 2786.54 36.7376 2782.21 38.9381L2782.18 38.9571L2782.17 38.9615C2779.3 40.419 2776.26 41.9688 2773.03 43.5836C2756.82 51.7017 2736.17 61.4146 2711.74 69.0365C2662.85 84.2828 2598.83 91.1595 2524.85 60.2127C2391.65 4.48886 2290.29 -4.99845 2204.11 4.96932C2138.68 12.5367 2081.99 31.3121 2026.71 49.6246L2026.7 49.6261L2026.67 49.6363C2009.12 55.4508 1991.71 61.2183 1974.2 66.5653C1865.44 99.7816 1783.91 82.1043 1715.25 67.2152L1715.23 67.2122C1692.14 62.2049 1670.5 57.5133 1649.77 55.1798C1629.16 52.8597 1615.32 53.6722 1606.12 56.2642C1596.94 58.8512 1592.41 63.1983 1590.32 67.9544C1588.22 72.7408 1588.55 78.0389 1589.3 82.6117C1589.53 84.0191 1589.79 85.3267 1590.03 86.533C1590.19 87.3018 1590.33 88.0296 1590.46 88.7162C1590.62 89.5826 1590.73 90.3741 1590.78 91.0592C1590.8 91.4037 1590.8 91.7337 1590.78 92.0411C1590.76 92.337 1590.71 92.6119 1590.62 92.8582C1590.23 93.9937 1589.15 95.172 1587.57 96.3172C1585.98 97.4752 1583.82 98.6483 1581.19 99.7506C1575.92 101.956 1568.68 103.898 1560.1 104.861C1555.41 105.389 1550.31 105.624 1544.91 105.447C1546.49 106.346 1548.02 107.203 1549.47 108.011C1551.23 108.989 1552.9 109.895 1554.45 110.718C1598.29 133.949 1640.52 118.601 1643.09 110.718C1643.46 109.585 1643.05 107.424 1642.52 104.674C1639.99 91.5543 1634.88 65.0218 1700.29 72.7039C1720.22 75.0453 1741 79.7467 1763.16 84.7603L1763.17 84.7611C1828.96 99.6451 1906.93 117.283 2011.02 84.1082C2027.79 78.7647 2044.48 72.9981 2061.3 67.1829C2184.12 24.7342 2314.42 -20.3 2539.09 77.7725C2652.27 127.176 2741.08 80.015 2785.29 56.5413C2796.36 50.6595 2804.64 46.265 2809.8 45.2496C2821.23 38.4915 2860.31 25.8202 2925.13 29.1993C2947.22 30.3507 2957.79 34.4344 2961.52 39.9737Z" fill="#000E29"/>
</svg>
