<svg width="4468" height="1093" viewBox="0 0 4468 1093" fill="none" xmlns="http://www.w3.org/2000/svg">
<path fill-rule="evenodd" clip-rule="evenodd" d="M3272.48 994.783L4009.78 1009.39L4165.4 1008.89L4169.48 750.849L4139 750.368V373.001H4467.79C4463.08 286.272 4384.43 116.11 4107.56 129.288C3830.69 142.467 3669.06 113.66 3622.85 97.6101C3619.87 96.907 3613.97 94.6824 3605.82 91.6045C3564.96 76.1925 3467.38 39.386 3395.07 65.0871C3308.31 95.9206 3254.14 92.9638 3221.13 86.2058C3199.7 81.8181 3202.52 74.2256 3205.33 66.6649C3206.85 62.5805 3208.36 58.5054 3206.04 54.9499C3177.38 36.3651 3129.97 53.9643 3109.86 65.0868C3095.08 77.3358 3052.33 101.834 2999.52 101.834C2899.19 102.172 2897.36 73.2528 2908.99 58.7511C2910.37 57.2354 2911.91 55.6183 2913.51 53.9289L2913.51 53.927C2929.44 37.161 2952.16 13.2473 2893.91 10.1778C2829.78 6.79873 2791.12 19.4701 2779.8 26.2282C2774.7 27.2437 2766.51 31.6382 2755.56 37.52C2711.82 60.9937 2623.96 108.155 2511.99 58.7511C2289.71 -39.3213 2160.8 5.71267 2039.3 48.1613C2022.65 53.9765 2006.15 59.7431 1989.56 65.0867C1886.57 98.2611 1809.44 80.6237 1744.35 65.7395L1744.34 65.7392L1744.34 65.7388C1722.42 60.7251 1701.86 56.024 1682.14 53.6825C1617.43 46.0003 1622.49 72.533 1624.99 85.6531C1625.51 88.403 1625.92 90.5636 1625.56 91.6966C1623.01 99.5791 1581.23 114.927 1537.86 91.6966C1533.01 89.102 1527.09 85.6772 1520.38 81.7891L1520.36 81.777L1520.35 81.773C1466.92 50.843 1362.9 -9.37363 1344.54 85.3609C1336.46 127.045 1254.82 120.032 1211.8 116.335C1202.75 115.558 1195.41 114.927 1190.83 114.927L453.391 111.971L297.794 114.927V373H336V690.287L0 684.979C3.34424 771.771 79.2944 943.154 356.336 934.351C633.378 925.548 794.536 956.904 840.484 973.682C843.454 974.432 849.311 976.747 857.415 979.952L857.427 979.956C898.035 996.012 995.015 1034.35 1067.73 1009.8C1154.96 980.34 1209.08 984.152 1241.98 991.431C1263.33 996.156 1260.39 1003.7 1257.47 1011.22C1255.89 1015.28 1254.31 1019.33 1256.57 1022.92C1284.94 1041.96 1332.61 1025.11 1352.9 1014.3C1367.87 1002.29 1411 978.471 1463.8 979.305C1564.13 980.552 1565.5 1009.5 1553.64 1023.81C1552.24 1025.31 1550.68 1026.9 1549.05 1028.56C1532.86 1045.08 1509.76 1068.63 1567.96 1072.62C1632.02 1077.01 1670.88 1064.95 1682.3 1058.37C1687.42 1057.44 1695.68 1053.17 1706.73 1047.46C1750.82 1024.68 1839.42 978.917 1950.6 1030.08C2171.3 1131.66 2300.9 1088.66 2423.06 1048.14C2439.8 1042.59 2456.39 1037.08 2473.06 1032C2576.56 1000.46 2653.41 1019.31 2718.25 1035.22C2740.1 1040.58 2760.58 1045.61 2780.27 1048.26C2844.85 1056.96 2840.21 1030.35 2837.91 1017.2C2837.43 1014.44 2837.06 1012.27 2837.44 1011.14C2840.11 1003.3 2882.12 988.616 2925.13 1012.53C2929.94 1015.2 2935.81 1018.73 2942.48 1022.73C2995.41 1054.5 3098.46 1116.35 3118.32 1021.92C3127.06 980.366 3208.58 988.669 3251.53 993.044L3251.54 993.045C3260.57 993.965 3267.9 994.711 3272.48 994.783Z" fill="#000E29"/>
</svg>
