<svg width="4170" height="373" viewBox="0 0 4170 373" fill="none" xmlns="http://www.w3.org/2000/svg">
<path d="M893.033 114.928L155.597 111.971L2.25615e-05 114.928L0 373.001L4170 373.001C4165.29 286.273 4086.64 116.111 3809.77 129.289C3532.9 142.467 3371.27 113.661 3325.06 97.6109C3307.14 93.3871 3184.03 34.2543 3097.27 65.0879C3010.52 95.9214 2956.34 92.9646 2923.34 86.2066C2890.33 79.4486 2914.85 65.0877 2908.25 54.9506C2879.58 36.366 2832.18 53.9651 2812.06 65.0877C2797.29 77.3367 2754.54 101.835 2701.73 101.835C2601.39 102.172 2599.57 73.2536 2611.2 58.752C2626.24 42.1954 2660.24 13.5576 2596.11 10.1786C2531.99 6.79954 2493.32 19.4709 2482.01 26.2289C2456.55 31.2974 2354.22 120.535 2214.19 58.752C1961.47 -52.7558 1829.44 20.7379 1691.76 65.0876C1554.08 109.437 1462.61 62.9757 1384.34 53.6834C1306.07 44.391 1329.88 85.1592 1327.76 91.6974C1325.21 99.58 1283.44 114.928 1240.06 91.6974C1196.68 68.4666 1067.42 -21.3023 1046.74 85.3617C1036.96 135.813 919.437 114.928 893.033 114.928Z" fill="#000E29"/>
</svg>
