<svg width="4170" height="373" viewBox="0 0 4170 373" fill="none" xmlns="http://www.w3.org/2000/svg">
<path d="M3276.97 258.073L4014.4 261.03L4170 258.073V0H0C4.71484 86.7283 83.3623 256.89 360.231 243.712C637.099 230.534 798.732 259.34 844.939 275.39C862.856 279.614 985.968 338.747 1072.73 307.913C1159.48 277.08 1213.66 280.037 1246.66 286.795C1279.67 293.553 1255.15 307.914 1261.75 318.051C1290.42 336.635 1337.82 319.036 1357.94 307.914C1372.71 295.665 1415.46 271.167 1468.27 271.167C1568.61 270.829 1570.43 299.748 1558.8 314.249C1543.76 330.806 1509.76 359.444 1573.89 362.823C1638.01 366.202 1676.68 353.53 1687.99 346.772C1713.45 341.704 1815.78 252.467 1955.81 314.249C2208.53 425.757 2340.56 352.263 2478.24 307.914C2615.92 263.564 2707.39 310.025 2785.66 319.318C2863.93 328.61 2840.12 287.842 2842.24 281.304C2844.79 273.421 2886.56 258.073 2929.94 281.304C2973.32 304.535 3102.58 394.303 3123.26 287.639C3133.04 237.188 3250.56 258.073 3276.97 258.073Z" fill="#000E29"/>
</svg>
