<svg width="1920" height="1406" viewBox="0 0 1920 1406" fill="none" xmlns="http://www.w3.org/2000/svg">
<path fill-rule="evenodd" clip-rule="evenodd" d="M-765.774 1336.46L-70.7209 1316.04C-66.396 1315.93 -59.4934 1315.12 -50.9846 1314.13C-10.5259 1309.42 66.2493 1300.47 74.9138 1341.95C94.6055 1436.22 191.143 1373.56 240.729 1341.38C246.973 1337.32 252.473 1333.75 256.981 1331.04C297.288 1306.79 337.049 1321.15 339.65 1328.97C340.024 1330.09 339.69 1332.26 339.265 1335.02C337.237 1348.2 333.137 1374.84 393.939 1365.63C412.471 1362.82 431.734 1357.63 452.278 1352.1C513.261 1335.68 585.526 1316.22 683.437 1346.95C699.209 1351.9 714.913 1357.27 730.749 1362.69C846.35 1402.25 968.991 1444.21 1176.05 1340.91C1280.36 1288.87 1364.37 1333.94 1406.18 1356.37C1416.66 1361.99 1424.49 1366.19 1429.32 1367.08C1440.16 1373.57 1476.92 1385.32 1537.28 1380.42C1592.11 1375.98 1570.1 1352.61 1554.67 1336.22C1553.11 1334.57 1551.62 1332.99 1550.28 1331.51C1538.96 1317.29 1539.95 1288.33 1634.54 1286.3C1684.32 1285.04 1725.23 1308.52 1739.46 1320.42C1758.71 1331.06 1803.83 1347.53 1830.39 1328.27C1832.48 1324.66 1830.95 1320.63 1829.42 1316.58C1826.58 1309.09 1823.73 1301.56 1843.82 1296.67C1874.77 1289.13 1925.76 1284.89 2008.31 1313.66C2077.12 1337.64 2168.18 1298.54 2206.3 1282.16C2213.92 1278.89 2219.42 1276.53 2222.21 1275.76C2265.37 1258.62 2417 1225.99 2678.32 1232.61C2939.63 1239.23 3009.49 1067.26 3011.76 980.445L1923 1007.8L1923 373.001L2925.01 373.001L2925.01 114.928L2778.29 111.972L2082.95 114.928C2078.62 114.928 2071.7 115.559 2063.17 116.336L2063.17 116.336C2022.6 120.032 1945.63 127.046 1938.01 85.3617C1920.69 -9.37229 1822.61 50.8438 1772.23 81.7737L1772.22 81.7777C1765.88 85.6708 1760.3 89.1 1755.72 91.6974C1714.82 114.928 1675.43 99.58 1673.03 91.6974C1672.68 90.5645 1673.07 88.4038 1673.57 85.6539C1675.92 72.5339 1680.69 46.0013 1619.68 53.6835C1601.08 56.0249 1581.69 60.7262 1561.02 65.74L1561.02 65.7404C1499.64 80.6245 1426.91 98.2619 1329.8 65.0876C1314.16 59.7441 1298.6 53.9775 1282.9 48.1623C1168.33 5.71371 1046.78 -39.3205 837.191 58.7519C731.61 108.155 648.761 60.9942 607.524 37.5207C597.191 31.6389 589.471 27.2444 584.661 26.2289C573.991 19.4709 537.534 6.79959 477.069 10.1785C422.141 13.2482 443.562 37.1618 458.58 53.9276C460.094 55.6179 461.543 57.2356 462.842 58.7519C473.809 73.2534 472.089 102.172 377.479 101.834C327.685 101.834 287.375 77.3364 273.444 65.0875C254.475 53.965 209.778 36.3658 182.747 54.9504C180.564 58.506 181.99 62.5812 183.42 66.6656C186.067 74.2262 188.725 81.8187 168.52 86.2064C137.398 92.9643 86.3153 95.9211 4.50988 65.0876C-63.6783 39.3866 -155.684 76.1932 -194.209 91.6052C-201.902 94.6829 -207.463 96.9074 -210.275 97.6106C-253.846 113.661 -406.253 142.467 -667.319 129.289C-928.386 116.111 -1002.54 286.272 -1006.99 373L-0.99991 373L-0.999969 1056.13L-919 1079.19L-912.519 1337.18L-765.774 1336.46Z" fill="#000E29"/>
</svg>
