<svg width="1997" height="587" viewBox="0 0 1997 587" fill="none" xmlns="http://www.w3.org/2000/svg">
<path fill-rule="evenodd" clip-rule="evenodd" d="M0 31.4914L280.482 29.0103C295.368 29.0103 333.542 36.3657 367.142 65.7873C409.144 102.564 451.676 86.8026 476.133 57.9065C500.589 29.0103 524.14 48.1015 525.577 57.9065C525.784 59.3157 525.551 62.0033 525.256 65.4238C523.846 81.7434 520.995 114.747 557.477 105.191C568.596 102.279 580.188 96.4305 592.55 90.1938C629.248 71.6797 672.735 49.7409 730.798 91.0057C740.15 97.6524 749.456 104.825 758.841 112.059C827.344 164.86 900.02 220.876 1025.34 98.8865C1088.47 37.4346 1138 96.0972 1162.66 125.295C1168.84 132.612 1173.45 138.078 1176.33 139.341C1182.71 147.747 1204.51 163.509 1240.66 159.306C1273.5 155.488 1260.69 125.742 1251.71 104.887C1250.81 102.785 1249.94 100.773 1249.17 98.8865C1242.61 80.8483 1243.64 44.8769 1300.21 45.2972C1329.98 45.2972 1354.08 75.7696 1362.41 91.0057C1373.75 104.841 1400.48 126.732 1416.64 103.615C1417.94 99.1923 1417.09 94.1233 1416.24 89.0427C1414.65 79.6383 1413.06 70.1942 1425.15 64.7365C1443.75 56.3303 1463.96 65.2618 1512.87 103.615C1553.34 135.345 1614.91 81.8503 1640.69 59.4534C1646.07 54.7784 1649.89 51.4583 1651.63 50.5511C1677.68 30.5864 1768.81 -5.24481 1924.91 11.1472C1952.24 14.0175 1976.14 9.89557 1997 0.562988V586.966H0V31.4914Z" fill="white"/>
</svg>
